<?xml version="1.0" encoding="utf-8"?>
<!-- Generator: Adobe Illustrator 16.0.0, SVG Export Plug-In . SVG Version: 6.00 Build 0)  -->
<!DOCTYPE svg PUBLIC "-//W3C//DTD SVG 1.1//EN" "http://www.w3.org/Graphics/SVG/1.1/DTD/svg11.dtd">
<svg version="1.1" xmlns="http://www.w3.org/2000/svg" xmlns:xlink="http://www.w3.org/1999/xlink" x="0px" y="0px" width="150px"
	 height="220.513px" viewBox="231.612 218.547 150 220.513" enable-background="new 231.612 218.547 150 220.513"
	 xml:space="preserve">
<g id="Layer_2" display="none">
	<rect x="231.612" y="218.547" display="inline" fill="#2C3E50" width="150" height="220.513"/>
</g>
<g id="Layer_1">
	<g opacity="0.1">
		<path fill="#FFFFFF" d="M300.146,371.301c-2.328-1.293-5.431-0.259-6.466,2.069l-8.793,17.328
			c-1.293,2.328-0.258,5.431,2.069,6.466c0.776,0.258,1.552,0.517,2.328,0.517c1.81,0,3.362-1.034,4.396-2.586l8.793-17.328
			C303.508,375.439,302.474,372.594,300.146,371.301z"/>
		<path fill="#FFFFFF" d="M318.766,395.353c0.777,1.811,2.588,2.586,4.396,2.586c0.777,0,1.553-0.259,2.328-0.518
			c2.328-1.293,3.363-4.138,2.07-6.465l-8.795-17.328c-1.291-2.328-4.137-3.362-6.465-2.069c-2.326,1.293-3.361,4.138-2.068,6.465
			L318.766,395.353z"/>
		<path fill="#FFFFFF" d="M324.197,351.388c2.586,0,4.914-2.069,4.914-4.914c0-6.983,5.689-12.672,12.672-12.672
			s12.674,5.689,12.674,12.672c0,2.586,2.068,4.914,4.912,4.914c2.588,0,4.914-2.069,4.914-4.914c0-12.414-10.086-22.5-22.5-22.5
			c-12.412,0-22.5,10.086-22.5,22.5C319.283,349.06,321.354,351.388,324.197,351.388z"/>
		<path fill="#FFFFFF" d="M289.025,351.388c2.586,0,4.914-2.069,4.914-4.914c0-12.414-10.086-22.5-22.5-22.5
			c-12.414,0-22.5,10.086-22.5,22.5c0,2.586,2.069,4.914,4.914,4.914c2.845,0,4.914-2.069,4.914-4.914
			c0-6.983,5.69-12.672,12.672-12.672c6.983,0,12.672,5.689,12.672,12.672C284.111,349.06,286.439,351.388,289.025,351.388z"/>
		<path fill="#FFFFFF" d="M381.611,258.801c0-22.5-32.846-39.827-75-39.827c-42.155,0-75,17.586-75,39.827
			c0,9.311,5.69,17.845,15.518,24.569c-10.086,12.931-15.518,28.965-15.518,45.517v35.172c0,13.707,9.311,20.172,17.586,21.982
			c0.776,13.449,5.172,31.552,17.845,34.914c1.552,8.535,8.017,18.104,21.983,18.104h35.172c8.277,0,19.914-4.913,21.982-18.104
			c12.674-3.361,17.07-21.465,17.846-34.914c8.275-1.81,17.586-8.276,17.586-21.982v-35.172c0-16.552-5.432-32.586-15.518-45.517
			C375.922,276.646,381.611,268.112,381.611,258.801z M259.284,387.335c3.621,1.293,7.5,4.397,7.5,11.638v10.604
			C261.87,405.439,259.801,394.835,259.284,387.335z M324.197,429.232h-35.172c-7.5,0-10.604-4.138-11.896-7.759h58.707
			C333.508,428.715,326.008,429.232,324.197,429.232z M346.439,409.577v-10.604c0-7.241,3.879-10.345,7.5-11.638
			C353.162,394.577,351.354,405.181,346.439,409.577z M371.783,328.888v35.172c0,11.896-10.604,12.672-12.672,12.672
			c-9.051,0-22.5,5.948-22.5,22.5v12.414h-60.258v-12.673c0-16.552-13.449-22.5-22.5-22.5c-1.293,0-12.672-0.259-12.672-12.673
			v-34.914c0-14.741,4.914-29.224,14.224-40.604c13.189,6.465,31.034,10.345,50.948,10.345c19.913,0,37.758-3.879,50.948-10.345
			C366.869,299.664,371.783,314.146,371.783,328.888z M358.078,277.164c-1.035,0-1.813,0.517-2.588,1.293
			c-0.258,0.259-0.258,0.259-0.516,0.517c-11.639,5.948-28.191,10.086-48.363,10.086c-39.052,0-65.172-15.517-65.172-30.259
			c0-14.741,26.121-30.258,65.172-30.258c39.051,0,65.172,15.517,65.172,30.258C371.783,265.008,366.869,271.732,358.078,277.164z"
			/>
		<path fill="#FFFFFF" d="M306.611,236.301c-28.448,0-57.414,7.759-57.414,22.5c0,14.742,28.965,22.5,57.414,22.5
			c14.225,0,28.449-1.81,39.051-5.689l0,0c1.295,0,2.328-0.517,3.363-1.293c9.053-3.621,15-8.793,15-15.518
			C364.025,244.06,335.061,236.301,306.611,236.301z M280.75,269.146c8.017-3.621,17.069-5.431,25.862-5.431
			c9.051,0,17.846,1.81,25.863,5.431c-6.984,1.293-15.777,2.327-25.863,2.327C296.267,271.474,287.732,270.439,280.75,269.146z
			 M345.922,265.008c-11.896-7.241-25.346-11.121-39.311-11.121c-13.965,0-27.414,3.879-39.31,11.121
			c-5.431-2.328-8.276-4.655-8.276-6.465c0-3.879,16.293-12.672,47.586-12.672s47.586,8.793,47.586,12.672
			C354.197,260.353,351.611,262.681,345.922,265.008z"/>
	</g>
</g>
</svg>
