<?xml version="1.0" encoding="utf-8"?>
<!-- Generator: Adobe Illustrator 19.2.1, SVG Export Plug-In . SVG Version: 6.00 Build 0)  -->
<svg version="1.1" id="Layer_1" xmlns="http://www.w3.org/2000/svg" xmlns:xlink="http://www.w3.org/1999/xlink" x="0px" y="0px"
	 viewBox="0 0 150 150" style="enable-background:new 0 0 150 150;" xml:space="preserve">
<style type="text/css">
	.st0{fill:#F1C31A;}
	.st1{fill:#913694;}
	.st2{fill:#05A186;}
	.st3{fill:#2281BB;}
	.st4{fill:#C23B2B;}
	.st5{fill:#465868;}
</style>
<g>
	<path class="st0" d="M93.7,38.8c1-1,0.9-2.7-0.3-3.5c-2.9-2.1-6.1-3.5-9.4-4.3c-0.1,0-0.1,0-0.2-0.1c-0.4-0.1-0.8-0.2-1.2-0.2
		c-1.8-0.3-2.8-0.1-3.2,0.6c-0.3,0.5,0,1.2,0.3,1.6c0.1,0.1,0.2,0.2,0.3,0.3c0,0.1,0.1,0.1,0.1,0.1l0,0c1.8,2.2,3,4.8,3.2,7.6
		c0.2,2.4-0.2,4.9-1.2,7.1c-0.3,0.8-0.7,1.5-0.7,2.4c-0.1,1.9,1.5,3.3,2.8,4.6c1.5,1.4,3.9,1.3,5.3-0.1l1-1c0.8-0.8,0.8-2.1,0-2.9
		c-1.3-1.4-2-3.2-1.8-5.2c0.2-1.5,0.9-3,2-4.1L93.7,38.8L93.7,38.8L93.7,38.8z"/>
	<path class="st1" d="M103.9,69.1c-1.4,1.5-3.7,2.4-5.8,2.4c-0.4,0-0.7,0-1.1-0.1c-1.7-0.3-3.4,0.4-4.7,1.6c0,0,0,0,0,0l-3.3,3.3
		c-0.7,0.7-0.7,1.8-0.1,2.5l1.6,1.8c4.1,4.5,11.4,3.1,13.6-2.5c1.1-2.8,1.9-5.5,2.3-8.1C106.8,68.6,105.3,67.6,103.9,69.1
		L103.9,69.1L103.9,69.1L103.9,69.1z"/>
	<path class="st2" d="M102,44.9c-1.6-2.7-5.2-3.1-7.4-0.9l-1,1c-0.4,0.4-0.6,0.9-0.6,1.5c0,0.5,0.2,1.1,0.6,1.5
		c1.9,2,2.4,4.9,1.2,7.2c-0.5,1.2-0.5,2.5,0,3.6c0.8,1.6,1.1,3.4,1.2,5.1c0,2.5,3.1,3.8,4.8,2.1c0,0,0,0,0,0l4.4-4.4
		c1.1-1.1,1.6-2.6,1.3-4.2C105.7,52.5,104,48.3,102,44.9L102,44.9L102,44.9L102,44.9z"/>
	<path class="st3" d="M77.3,65.8l5.6,6.3c1.1,1.3,3.1,1.3,4.3,0.1l2.1-2.2c2.1-2.1,2.8-5.2,2.1-7.9l0,0l0,0l0,0
		c-0.3-1.1-1.5-1.7-2.5-1.4c-0.7,0.2-1.3,0.3-2,0.3c-1.6,0-3.3-0.6-4.5-1.9l-3.7-3.7c-1.7-1.7-3.8-2.9-6.2-3.2c-1-0.1-2-0.1-2.9,0
		c-1.7,0.3-2.3,2.4-1.2,3.6L77.3,65.8"/>
	<path class="st4" d="M74.3,48.2c1.7,0.4,3.4-0.6,4.1-2.2c0.6-1.5,0.9-3.1,0.7-4.7c-0.2-2.3-1.4-4.4-3-6l-2.9-2.9
		c-1.1-1.1-2.8-1.6-4.4-1.3c-2.1,0.5-4.2,1.2-6.2,2c-5.2,2.2-6.7,8.9-2.9,13.1l1.8,2c1,1.1,2.6,1.5,3.9,0.9
		C68.2,47.8,71.3,47.5,74.3,48.2L74.3,48.2L74.3,48.2L74.3,48.2z"/>
	<path class="st5" d="M58.7,75c0,3.5-2.8,6.3-6.2,6.3c-3.4,0-6.2-2.8-6.2-6.3c0-3.5,2.8-6.3,6.2-6.3C55.9,68.7,58.7,71.5,58.7,75
		L58.7,75L58.7,75L58.7,75z"/>
	<path class="st5" d="M75,5C36.3,5,5,36.5,5,75.4c0,35.1,25.6,64.2,59,69.6v-18.9c-0.1,0-0.3,0-0.4,0h-7.8
		c-11.1,0-20.1-9.1-20.1-20.2V94.7h-3.8c-4.5,0-7.7-4.4-6.3-8.7L37,51.3l0,0C42,32.7,59.7,19.2,80.2,21.1
		c19.6,1.8,35.2,17.9,36.7,37.6c0.4,5.6-0.3,10.9-1.9,15.9c-4.7,14.3-7.6,29.2-7.6,44.3l1.7,18c21.4-12.1,35.8-35.1,35.8-61.5
		C145,36.5,113.7,5,75,5L75,5L75,5L75,5z"/>
</g>
</svg>
